<mxfile host="app.diagrams.net" agent="Mozilla/5.0 (Windows NT 10.0; Win64; x64) AppleWebKit/537.36 (KHTML, like Gecko) Chrome/129.0.0.0 Safari/537.36" version="24.7.17">
  <diagram name="Page-1" id="dJtnb-HGtETSuoWj85qX">
    <mxGraphModel dx="989" dy="514" grid="1" gridSize="10" guides="1" tooltips="1" connect="1" arrows="1" fold="1" page="1" pageScale="1" pageWidth="850" pageHeight="1100" math="0" shadow="0">
      <root>
        <mxCell id="0" />
        <mxCell id="1" parent="0" />
        <mxCell id="NJYt_cSEDjtvAGryxD8u-1" value="" style="rounded=0;whiteSpace=wrap;html=1;" parent="1" vertex="1">
          <mxGeometry x="260" y="70" width="360" height="590" as="geometry" />
        </mxCell>
        <mxCell id="NJYt_cSEDjtvAGryxD8u-3" value="" style="rounded=0;whiteSpace=wrap;html=1;" parent="1" vertex="1">
          <mxGeometry x="370" y="70" width="120" height="30" as="geometry" />
        </mxCell>
        <mxCell id="NJYt_cSEDjtvAGryxD8u-4" value="BookingApp" style="text;html=1;align=center;verticalAlign=middle;whiteSpace=wrap;rounded=0;" parent="1" vertex="1">
          <mxGeometry x="392.5" y="70" width="75" height="30" as="geometry" />
        </mxCell>
        <mxCell id="NJYt_cSEDjtvAGryxD8u-7" style="edgeStyle=orthogonalEdgeStyle;rounded=0;orthogonalLoop=1;jettySize=auto;html=1;exitX=0.5;exitY=1;exitDx=0;exitDy=0;" parent="1" source="NJYt_cSEDjtvAGryxD8u-3" target="NJYt_cSEDjtvAGryxD8u-3" edge="1">
          <mxGeometry relative="1" as="geometry" />
        </mxCell>
        <mxCell id="NJYt_cSEDjtvAGryxD8u-8" value="Instructor" style="shape=umlActor;verticalLabelPosition=bottom;verticalAlign=top;html=1;outlineConnect=0;" parent="1" vertex="1">
          <mxGeometry x="110" y="220" width="30" height="60" as="geometry" />
        </mxCell>
        <mxCell id="NJYt_cSEDjtvAGryxD8u-15" value="Client" style="shape=umlActor;verticalLabelPosition=bottom;verticalAlign=top;html=1;outlineConnect=0;" parent="1" vertex="1">
          <mxGeometry x="110" y="365" width="30" height="60" as="geometry" />
        </mxCell>
        <mxCell id="NJYt_cSEDjtvAGryxD8u-16" value="Administrator&lt;div&gt;&lt;br&gt;&lt;/div&gt;" style="shape=umlActor;verticalLabelPosition=bottom;verticalAlign=top;html=1;outlineConnect=0;" parent="1" vertex="1">
          <mxGeometry x="720" y="140" width="30" height="60" as="geometry" />
        </mxCell>
        <mxCell id="NJYt_cSEDjtvAGryxD8u-17" value="Register to System" style="ellipse;whiteSpace=wrap;html=1;" parent="1" vertex="1">
          <mxGeometry x="295" y="290" width="90" height="50" as="geometry" />
        </mxCell>
        <mxCell id="NJYt_cSEDjtvAGryxD8u-20" value="" style="endArrow=none;html=1;rounded=0;entryX=0;entryY=0.5;entryDx=0;entryDy=0;" parent="1" source="NJYt_cSEDjtvAGryxD8u-8" target="NJYt_cSEDjtvAGryxD8u-17" edge="1">
          <mxGeometry width="50" height="50" relative="1" as="geometry">
            <mxPoint x="390" y="480" as="sourcePoint" />
            <mxPoint x="440" y="430" as="targetPoint" />
          </mxGeometry>
        </mxCell>
        <mxCell id="NJYt_cSEDjtvAGryxD8u-21" value="" style="endArrow=none;html=1;rounded=0;entryX=0;entryY=0.5;entryDx=0;entryDy=0;" parent="1" source="NJYt_cSEDjtvAGryxD8u-15" target="NJYt_cSEDjtvAGryxD8u-17" edge="1">
          <mxGeometry width="50" height="50" relative="1" as="geometry">
            <mxPoint x="140" y="368.7050359712231" as="sourcePoint" />
            <mxPoint x="440" y="430" as="targetPoint" />
          </mxGeometry>
        </mxCell>
        <mxCell id="NJYt_cSEDjtvAGryxD8u-22" value="Take on Offerings" style="ellipse;whiteSpace=wrap;html=1;" parent="1" vertex="1">
          <mxGeometry x="295" y="165" width="90" height="50" as="geometry" />
        </mxCell>
        <mxCell id="NJYt_cSEDjtvAGryxD8u-23" value="" style="endArrow=none;html=1;rounded=0;entryX=0;entryY=0.5;entryDx=0;entryDy=0;" parent="1" source="NJYt_cSEDjtvAGryxD8u-8" target="NJYt_cSEDjtvAGryxD8u-22" edge="1">
          <mxGeometry width="50" height="50" relative="1" as="geometry">
            <mxPoint x="390" y="390" as="sourcePoint" />
            <mxPoint x="440" y="340" as="targetPoint" />
          </mxGeometry>
        </mxCell>
        <mxCell id="NJYt_cSEDjtvAGryxD8u-24" value="Enter Availability in City(s)" style="ellipse;whiteSpace=wrap;html=1;" parent="1" vertex="1">
          <mxGeometry x="288.75" y="230" width="100" height="50" as="geometry" />
        </mxCell>
        <mxCell id="NJYt_cSEDjtvAGryxD8u-25" value="View All Available Offerings" style="ellipse;whiteSpace=wrap;html=1;" parent="1" vertex="1">
          <mxGeometry x="296.25" y="105" width="90" height="50" as="geometry" />
        </mxCell>
        <mxCell id="NJYt_cSEDjtvAGryxD8u-26" value="" style="endArrow=none;html=1;rounded=0;entryX=0;entryY=0.5;entryDx=0;entryDy=0;" parent="1" source="NJYt_cSEDjtvAGryxD8u-8" target="NJYt_cSEDjtvAGryxD8u-25" edge="1">
          <mxGeometry width="50" height="50" relative="1" as="geometry">
            <mxPoint x="140" y="135" as="sourcePoint" />
            <mxPoint x="440" y="250" as="targetPoint" />
          </mxGeometry>
        </mxCell>
        <mxCell id="NJYt_cSEDjtvAGryxD8u-27" value="View Instructor-Assigned Lessons" style="ellipse;whiteSpace=wrap;html=1;" parent="1" vertex="1">
          <mxGeometry x="288.75" y="357.5" width="112.5" height="75" as="geometry" />
        </mxCell>
        <mxCell id="NJYt_cSEDjtvAGryxD8u-28" value="" style="endArrow=none;html=1;rounded=0;entryX=0;entryY=0.5;entryDx=0;entryDy=0;" parent="1" source="NJYt_cSEDjtvAGryxD8u-15" target="NJYt_cSEDjtvAGryxD8u-27" edge="1">
          <mxGeometry width="50" height="50" relative="1" as="geometry">
            <mxPoint x="390" y="300" as="sourcePoint" />
            <mxPoint x="440" y="250" as="targetPoint" />
          </mxGeometry>
        </mxCell>
        <mxCell id="NJYt_cSEDjtvAGryxD8u-29" value="View (their) Booked Lessons&#39; Details" style="ellipse;whiteSpace=wrap;html=1;" parent="1" vertex="1">
          <mxGeometry x="288.75" y="440" width="105" height="55" as="geometry" />
        </mxCell>
        <mxCell id="NJYt_cSEDjtvAGryxD8u-30" value="" style="endArrow=none;html=1;rounded=0;entryX=0;entryY=0.5;entryDx=0;entryDy=0;" parent="1" source="NJYt_cSEDjtvAGryxD8u-15" target="NJYt_cSEDjtvAGryxD8u-29" edge="1">
          <mxGeometry width="50" height="50" relative="1" as="geometry">
            <mxPoint x="390" y="300" as="sourcePoint" />
            <mxPoint x="440" y="250" as="targetPoint" />
          </mxGeometry>
        </mxCell>
        <mxCell id="NJYt_cSEDjtvAGryxD8u-31" value="" style="endArrow=none;html=1;rounded=0;entryX=0;entryY=0.5;entryDx=0;entryDy=0;" parent="1" source="NJYt_cSEDjtvAGryxD8u-8" target="NJYt_cSEDjtvAGryxD8u-24" edge="1">
          <mxGeometry width="50" height="50" relative="1" as="geometry">
            <mxPoint x="390" y="410" as="sourcePoint" />
            <mxPoint x="440" y="360" as="targetPoint" />
          </mxGeometry>
        </mxCell>
        <mxCell id="NJYt_cSEDjtvAGryxD8u-32" value="Make Bookings" style="ellipse;whiteSpace=wrap;html=1;" parent="1" vertex="1">
          <mxGeometry x="298.75" y="500" width="90" height="50" as="geometry" />
        </mxCell>
        <mxCell id="NJYt_cSEDjtvAGryxD8u-33" value="Make Bookings as Legal Guardian" style="ellipse;whiteSpace=wrap;html=1;" parent="1" vertex="1">
          <mxGeometry x="286.25" y="560" width="110" height="60" as="geometry" />
        </mxCell>
        <mxCell id="NJYt_cSEDjtvAGryxD8u-34" value="" style="endArrow=none;html=1;rounded=0;entryX=0;entryY=0.5;entryDx=0;entryDy=0;" parent="1" source="NJYt_cSEDjtvAGryxD8u-15" target="NJYt_cSEDjtvAGryxD8u-32" edge="1">
          <mxGeometry width="50" height="50" relative="1" as="geometry">
            <mxPoint x="140" y="375.07042253521126" as="sourcePoint" />
            <mxPoint x="440" y="490" as="targetPoint" />
          </mxGeometry>
        </mxCell>
        <mxCell id="NJYt_cSEDjtvAGryxD8u-35" value="" style="endArrow=none;html=1;rounded=0;entryX=0;entryY=0.5;entryDx=0;entryDy=0;" parent="1" source="NJYt_cSEDjtvAGryxD8u-15" target="NJYt_cSEDjtvAGryxD8u-33" edge="1">
          <mxGeometry width="50" height="50" relative="1" as="geometry">
            <mxPoint x="140" y="381.64179104477614" as="sourcePoint" />
            <mxPoint x="440" y="490" as="targetPoint" />
          </mxGeometry>
        </mxCell>
        <mxCell id="NJYt_cSEDjtvAGryxD8u-36" value="" style="endArrow=none;html=1;rounded=0;exitX=1;exitY=0.5;exitDx=0;exitDy=0;" parent="1" source="NJYt_cSEDjtvAGryxD8u-25" target="NJYt_cSEDjtvAGryxD8u-16" edge="1">
          <mxGeometry width="50" height="50" relative="1" as="geometry">
            <mxPoint x="390" y="240" as="sourcePoint" />
            <mxPoint x="440" y="190" as="targetPoint" />
          </mxGeometry>
        </mxCell>
        <mxCell id="NJYt_cSEDjtvAGryxD8u-37" value="Enter Organization&#39;s Offerings" style="ellipse;whiteSpace=wrap;html=1;" parent="1" vertex="1">
          <mxGeometry x="485" y="235" width="90" height="55" as="geometry" />
        </mxCell>
        <mxCell id="NJYt_cSEDjtvAGryxD8u-38" value="Delete Instructor or Client Account" style="ellipse;whiteSpace=wrap;html=1;" parent="1" vertex="1">
          <mxGeometry x="480" y="300" width="100" height="65" as="geometry" />
        </mxCell>
        <mxCell id="NJYt_cSEDjtvAGryxD8u-39" value="View All Booked Lessons&#39; Details" style="ellipse;whiteSpace=wrap;html=1;" parent="1" vertex="1">
          <mxGeometry x="480" y="155" width="100" height="65" as="geometry" />
        </mxCell>
        <mxCell id="NJYt_cSEDjtvAGryxD8u-40" value="" style="endArrow=none;html=1;rounded=0;entryX=1;entryY=0.5;entryDx=0;entryDy=0;" parent="1" source="NJYt_cSEDjtvAGryxD8u-16" target="NJYt_cSEDjtvAGryxD8u-39" edge="1">
          <mxGeometry width="50" height="50" relative="1" as="geometry">
            <mxPoint x="390" y="280" as="sourcePoint" />
            <mxPoint x="440" y="230" as="targetPoint" />
          </mxGeometry>
        </mxCell>
        <mxCell id="AEjOl8XH6c3BlYWR8jCu-1" value="" style="endArrow=none;html=1;rounded=0;exitX=1;exitY=0.5;exitDx=0;exitDy=0;" edge="1" parent="1" source="NJYt_cSEDjtvAGryxD8u-37" target="NJYt_cSEDjtvAGryxD8u-16">
          <mxGeometry width="50" height="50" relative="1" as="geometry">
            <mxPoint x="370" y="270" as="sourcePoint" />
            <mxPoint x="420" y="220" as="targetPoint" />
          </mxGeometry>
        </mxCell>
        <mxCell id="AEjOl8XH6c3BlYWR8jCu-2" value="" style="endArrow=none;html=1;rounded=0;exitX=1;exitY=0.5;exitDx=0;exitDy=0;" edge="1" parent="1" source="NJYt_cSEDjtvAGryxD8u-38" target="NJYt_cSEDjtvAGryxD8u-16">
          <mxGeometry width="50" height="50" relative="1" as="geometry">
            <mxPoint x="370" y="270" as="sourcePoint" />
            <mxPoint x="420" y="220" as="targetPoint" />
          </mxGeometry>
        </mxCell>
      </root>
    </mxGraphModel>
  </diagram>
</mxfile>
